<?xml version="1.0" encoding="UTF-8" standalone="no"?>
<!DOCTYPE svg PUBLIC "-//W3C//DTD SVG 1.1//EN" "http://www.w3.org/Graphics/SVG/1.1/DTD/svg11.dtd">
<svg viewBox="0 0 100 100" xmlns:xlink="http://www.w3.org/1999/xlink" height="15.0pt" width="15.0pt" xmlns="http://www.w3.org/2000/svg" version="1.1"><defs>
<path d="M 0.00 0.00 L 100.00 0.00 L 100.00 100.00 L 0.00 100.00 L 0.00 0.00 Z" id="p0" />
<path d="M 57.01 0.53 C 79.33 3.36 96.62 25.97 95.86 48.00 C 95.65 58.54 90.73 68.12 84.03 76.02 C 74.91 86.46 63.42 94.69 50.10 98.83 C 50.08 96.05 50.12 93.26 50.10 90.47 C 34.60 89.38 20.37 80.92 12.65 67.35 C 4.28 53.13 4.82 34.70 13.92 20.94 C 23.09 6.68 40.04 -1.85 57.01 0.53 Z" id="p1" />
<path d="M 51.61 15.10 C 57.21 22.63 59.32 31.92 58.54 41.21 C 63.56 35.14 68.83 31.78 76.53 29.92 C 76.45 38.52 71.78 44.74 66.16 50.70 C 72.32 50.97 78.30 52.10 83.96 54.58 C 77.85 58.93 71.17 61.88 63.57 62.04 C 64.96 64.59 65.81 66.98 66.45 69.83 C 63.49 69.47 60.79 69.34 58.13 67.83 C 55.44 66.32 53.76 64.08 51.86 61.73 C 50.14 63.99 48.35 66.35 45.84 67.77 C 43.19 69.39 40.41 69.54 37.40 69.84 C 38.08 67.12 38.93 64.68 40.21 62.19 C 32.54 61.91 25.91 59.23 19.72 54.80 C 25.63 52.41 31.16 51.12 37.55 50.92 C 31.92 44.85 26.94 38.87 27.07 30.07 C 34.63 32.05 40.04 35.31 45.16 41.20 C 43.98 31.97 46.24 22.69 51.61 15.10 Z" id="p2" /></defs><g stroke-width="10pt">
<use stroke="#ffffff" xlink:href="#p0" />
<use stroke="#00c300" xlink:href="#p1" />
<use stroke="#ffffff" xlink:href="#p2" /></g>
<g>
<use xlink:href="#p0" fill="#ffffff" />
<use xlink:href="#p1" fill="#00c300" />
<use xlink:href="#p2" fill="#ffffff" /></g></svg>
